<?xml version="1.0" encoding="UTF-8" standalone="no"?><svg xmlns="http://www.w3.org/2000/svg" xmlns:xlink="http://www.w3.org/1999/xlink" width="500" zoomAndPan="magnify" viewBox="0 0 375 374.999991" height="500" preserveAspectRatio="xMidYMid meet" version="1.0"><defs><g/><clipPath id="489dba3141"><path d="M 61.855469 170.4375 L 119.605469 170.4375 L 119.605469 228.1875 L 61.855469 228.1875 Z M 61.855469 170.4375 " clip-rule="nonzero"/></clipPath><clipPath id="67412b6fd4"><path d="M 73 171 L 110 171 L 110 200 L 73 200 Z M 73 171 " clip-rule="nonzero"/></clipPath><clipPath id="d0003e0816"><path d="M 100.730469 192.597656 C 92.378906 196.539062 77.445312 202.921875 74.128906 197.929688 C 70.8125 192.933594 81.164062 180.222656 88.503906 175.351562 C 95.839844 170.476562 104.472656 170.574219 107.792969 175.570312 C 111.109375 180.5625 108.242188 189.054688 100.730469 192.597656 Z M 100.730469 192.597656 " clip-rule="nonzero"/></clipPath><linearGradient x1="11.245012" gradientTransform="matrix(0.00271641, 0.0993613, -0.0993613, 0.00271641, 113.108957, 170.890396)" y1="3.166072" x2="291.62735" gradientUnits="userSpaceOnUse" y2="452.835466" id="9f9967e0b1"><stop stop-opacity="1" stop-color="rgb(100%, 23.098755%, 28.999329%)" offset="0"/><stop stop-opacity="1" stop-color="rgb(100%, 23.098755%, 28.999329%)" offset="0.0625"/><stop stop-opacity="1" stop-color="rgb(99.97406%, 23.092651%, 28.991699%)" offset="0.09375"/><stop stop-opacity="1" stop-color="rgb(99.432373%, 22.969055%, 28.834534%)" offset="0.0976562"/><stop stop-opacity="1" stop-color="rgb(98.918152%, 22.850037%, 28.686523%)" offset="0.101562"/><stop stop-opacity="1" stop-color="rgb(98.403931%, 22.731018%, 28.536987%)" offset="0.105469"/><stop stop-opacity="1" stop-color="rgb(97.889709%, 22.612%, 28.387451%)" offset="0.109375"/><stop stop-opacity="1" stop-color="rgb(97.373962%, 22.492981%, 28.237915%)" offset="0.113281"/><stop stop-opacity="1" stop-color="rgb(96.859741%, 22.373962%, 28.088379%)" offset="0.117188"/><stop stop-opacity="1" stop-color="rgb(96.34552%, 22.254944%, 27.938843%)" offset="0.121094"/><stop stop-opacity="1" stop-color="rgb(95.831299%, 22.135925%, 27.790833%)" offset="0.125"/><stop stop-opacity="1" stop-color="rgb(95.315552%, 22.016907%, 27.641296%)" offset="0.128906"/><stop stop-opacity="1" stop-color="rgb(94.801331%, 21.897888%, 27.49176%)" offset="0.132812"/><stop stop-opacity="1" stop-color="rgb(94.287109%, 21.77887%, 27.342224%)" offset="0.136719"/><stop stop-opacity="1" stop-color="rgb(93.772888%, 21.661377%, 27.194214%)" offset="0.140625"/><stop stop-opacity="1" stop-color="rgb(93.257141%, 21.542358%, 27.044678%)" offset="0.144531"/><stop stop-opacity="1" stop-color="rgb(92.74292%, 21.42334%, 26.895142%)" offset="0.148438"/><stop stop-opacity="1" stop-color="rgb(92.228699%, 21.304321%, 26.745605%)" offset="0.152344"/><stop stop-opacity="1" stop-color="rgb(91.714478%, 21.185303%, 26.596069%)" offset="0.15625"/><stop stop-opacity="1" stop-color="rgb(91.19873%, 21.066284%, 26.446533%)" offset="0.160156"/><stop stop-opacity="1" stop-color="rgb(90.684509%, 20.947266%, 26.298523%)" offset="0.164062"/><stop stop-opacity="1" stop-color="rgb(90.170288%, 20.828247%, 26.148987%)" offset="0.167969"/><stop stop-opacity="1" stop-color="rgb(89.656067%, 20.709229%, 25.999451%)" offset="0.171875"/><stop stop-opacity="1" stop-color="rgb(89.14032%, 20.59021%, 25.849915%)" offset="0.175781"/><stop stop-opacity="1" stop-color="rgb(88.626099%, 20.472717%, 25.700378%)" offset="0.179688"/><stop stop-opacity="1" stop-color="rgb(88.111877%, 20.353699%, 25.550842%)" offset="0.183594"/><stop stop-opacity="1" stop-color="rgb(87.597656%, 20.23468%, 25.402832%)" offset="0.1875"/><stop stop-opacity="1" stop-color="rgb(87.081909%, 20.115662%, 25.253296%)" offset="0.191406"/><stop stop-opacity="1" stop-color="rgb(86.567688%, 19.996643%, 25.10376%)" offset="0.195312"/><stop stop-opacity="1" stop-color="rgb(86.051941%, 19.877625%, 24.954224%)" offset="0.199219"/><stop stop-opacity="1" stop-color="rgb(85.53772%, 19.758606%, 24.806213%)" offset="0.203125"/><stop stop-opacity="1" stop-color="rgb(85.023499%, 19.639587%, 24.656677%)" offset="0.207031"/><stop stop-opacity="1" stop-color="rgb(84.509277%, 19.520569%, 24.507141%)" offset="0.210938"/><stop stop-opacity="1" stop-color="rgb(83.99353%, 19.40155%, 24.357605%)" offset="0.214844"/><stop stop-opacity="1" stop-color="rgb(83.479309%, 19.282532%, 24.208069%)" offset="0.21875"/><stop stop-opacity="1" stop-color="rgb(82.965088%, 19.163513%, 24.058533%)" offset="0.222656"/><stop stop-opacity="1" stop-color="rgb(82.450867%, 19.046021%, 23.910522%)" offset="0.226562"/><stop stop-opacity="1" stop-color="rgb(81.93512%, 18.927002%, 23.760986%)" offset="0.230469"/><stop stop-opacity="1" stop-color="rgb(81.420898%, 18.807983%, 23.61145%)" offset="0.234375"/><stop stop-opacity="1" stop-color="rgb(80.906677%, 18.688965%, 23.461914%)" offset="0.238281"/><stop stop-opacity="1" stop-color="rgb(80.392456%, 18.569946%, 23.313904%)" offset="0.242188"/><stop stop-opacity="1" stop-color="rgb(79.876709%, 18.450928%, 23.164368%)" offset="0.246094"/><stop stop-opacity="1" stop-color="rgb(79.362488%, 18.331909%, 23.014832%)" offset="0.25"/><stop stop-opacity="1" stop-color="rgb(78.848267%, 18.212891%, 22.865295%)" offset="0.253906"/><stop stop-opacity="1" stop-color="rgb(78.334045%, 18.093872%, 22.715759%)" offset="0.257812"/><stop stop-opacity="1" stop-color="rgb(77.818298%, 17.974854%, 22.566223%)" offset="0.261719"/><stop stop-opacity="1" stop-color="rgb(77.304077%, 17.857361%, 22.418213%)" offset="0.265625"/><stop stop-opacity="1" stop-color="rgb(76.789856%, 17.738342%, 22.268677%)" offset="0.269531"/><stop stop-opacity="1" stop-color="rgb(76.275635%, 17.619324%, 22.119141%)" offset="0.273438"/><stop stop-opacity="1" stop-color="rgb(75.759888%, 17.500305%, 21.969604%)" offset="0.277344"/><stop stop-opacity="1" stop-color="rgb(75.245667%, 17.381287%, 21.820068%)" offset="0.28125"/><stop stop-opacity="1" stop-color="rgb(74.731445%, 17.262268%, 21.670532%)" offset="0.285156"/><stop stop-opacity="1" stop-color="rgb(74.217224%, 17.14325%, 21.522522%)" offset="0.289062"/><stop stop-opacity="1" stop-color="rgb(73.701477%, 17.024231%, 21.372986%)" offset="0.292969"/><stop stop-opacity="1" stop-color="rgb(73.187256%, 16.905212%, 21.22345%)" offset="0.296875"/><stop stop-opacity="1" stop-color="rgb(72.673035%, 16.786194%, 21.073914%)" offset="0.300781"/><stop stop-opacity="1" stop-color="rgb(72.158813%, 16.668701%, 20.925903%)" offset="0.304688"/><stop stop-opacity="1" stop-color="rgb(71.643066%, 16.549683%, 20.776367%)" offset="0.308594"/><stop stop-opacity="1" stop-color="rgb(71.128845%, 16.430664%, 20.626831%)" offset="0.3125"/><stop stop-opacity="1" stop-color="rgb(70.613098%, 16.311646%, 20.477295%)" offset="0.316406"/><stop stop-opacity="1" stop-color="rgb(70.098877%, 16.192627%, 20.327759%)" offset="0.320312"/><stop stop-opacity="1" stop-color="rgb(69.584656%, 16.073608%, 20.178223%)" offset="0.324219"/><stop stop-opacity="1" stop-color="rgb(69.070435%, 15.95459%, 20.030212%)" offset="0.328125"/><stop stop-opacity="1" stop-color="rgb(68.554688%, 15.835571%, 19.880676%)" offset="0.332031"/><stop stop-opacity="1" stop-color="rgb(68.040466%, 15.716553%, 19.73114%)" offset="0.335938"/><stop stop-opacity="1" stop-color="rgb(67.526245%, 15.597534%, 19.581604%)" offset="0.339844"/><stop stop-opacity="1" stop-color="rgb(67.012024%, 15.478516%, 19.433594%)" offset="0.34375"/><stop stop-opacity="1" stop-color="rgb(66.496277%, 15.359497%, 19.284058%)" offset="0.347656"/><stop stop-opacity="1" stop-color="rgb(65.982056%, 15.242004%, 19.134521%)" offset="0.351562"/><stop stop-opacity="1" stop-color="rgb(65.467834%, 15.122986%, 18.984985%)" offset="0.355469"/><stop stop-opacity="1" stop-color="rgb(64.953613%, 15.003967%, 18.835449%)" offset="0.359375"/><stop stop-opacity="1" stop-color="rgb(64.437866%, 14.884949%, 18.685913%)" offset="0.363281"/><stop stop-opacity="1" stop-color="rgb(63.923645%, 14.76593%, 18.537903%)" offset="0.367188"/><stop stop-opacity="1" stop-color="rgb(63.409424%, 14.646912%, 18.388367%)" offset="0.371094"/><stop stop-opacity="1" stop-color="rgb(62.895203%, 14.527893%, 18.238831%)" offset="0.375"/><stop stop-opacity="1" stop-color="rgb(62.379456%, 14.408875%, 18.089294%)" offset="0.378906"/><stop stop-opacity="1" stop-color="rgb(61.865234%, 14.289856%, 17.939758%)" offset="0.382812"/><stop stop-opacity="1" stop-color="rgb(61.351013%, 14.170837%, 17.790222%)" offset="0.386719"/><stop stop-opacity="1" stop-color="rgb(60.836792%, 14.053345%, 17.642212%)" offset="0.390625"/><stop stop-opacity="1" stop-color="rgb(60.321045%, 13.934326%, 17.492676%)" offset="0.394531"/><stop stop-opacity="1" stop-color="rgb(59.806824%, 13.815308%, 17.34314%)" offset="0.398438"/><stop stop-opacity="1" stop-color="rgb(59.292603%, 13.696289%, 17.193604%)" offset="0.402344"/><stop stop-opacity="1" stop-color="rgb(58.778381%, 13.577271%, 17.045593%)" offset="0.40625"/><stop stop-opacity="1" stop-color="rgb(58.262634%, 13.458252%, 16.896057%)" offset="0.410156"/><stop stop-opacity="1" stop-color="rgb(57.748413%, 13.339233%, 16.746521%)" offset="0.414062"/><stop stop-opacity="1" stop-color="rgb(57.234192%, 13.220215%, 16.596985%)" offset="0.417969"/><stop stop-opacity="1" stop-color="rgb(56.719971%, 13.101196%, 16.447449%)" offset="0.421875"/><stop stop-opacity="1" stop-color="rgb(56.204224%, 12.982178%, 16.297913%)" offset="0.425781"/><stop stop-opacity="1" stop-color="rgb(55.690002%, 12.863159%, 16.149902%)" offset="0.429688"/><stop stop-opacity="1" stop-color="rgb(55.174255%, 12.744141%, 16.000366%)" offset="0.433594"/><stop stop-opacity="1" stop-color="rgb(54.660034%, 12.626648%, 15.85083%)" offset="0.4375"/><stop stop-opacity="1" stop-color="rgb(54.145813%, 12.507629%, 15.701294%)" offset="0.441406"/><stop stop-opacity="1" stop-color="rgb(53.631592%, 12.388611%, 15.553284%)" offset="0.445313"/><stop stop-opacity="1" stop-color="rgb(53.115845%, 12.269592%, 15.403748%)" offset="0.449219"/><stop stop-opacity="1" stop-color="rgb(52.601624%, 12.150574%, 15.254211%)" offset="0.453125"/><stop stop-opacity="1" stop-color="rgb(52.087402%, 12.031555%, 15.104675%)" offset="0.457031"/><stop stop-opacity="1" stop-color="rgb(51.573181%, 11.912537%, 14.955139%)" offset="0.460938"/><stop stop-opacity="1" stop-color="rgb(51.057434%, 11.793518%, 14.805603%)" offset="0.464844"/><stop stop-opacity="1" stop-color="rgb(50.543213%, 11.6745%, 14.657593%)" offset="0.46875"/><stop stop-opacity="1" stop-color="rgb(50.028992%, 11.555481%, 14.508057%)" offset="0.472656"/><stop stop-opacity="1" stop-color="rgb(49.514771%, 11.437988%, 14.358521%)" offset="0.476562"/><stop stop-opacity="1" stop-color="rgb(48.999023%, 11.31897%, 14.208984%)" offset="0.480469"/><stop stop-opacity="1" stop-color="rgb(48.484802%, 11.199951%, 14.059448%)" offset="0.484375"/><stop stop-opacity="1" stop-color="rgb(47.970581%, 11.080933%, 13.909912%)" offset="0.488281"/><stop stop-opacity="1" stop-color="rgb(47.45636%, 10.961914%, 13.761902%)" offset="0.492188"/><stop stop-opacity="1" stop-color="rgb(46.940613%, 10.842896%, 13.612366%)" offset="0.496094"/><stop stop-opacity="1" stop-color="rgb(46.426392%, 10.723877%, 13.46283%)" offset="0.5"/><stop stop-opacity="1" stop-color="rgb(45.91217%, 10.604858%, 13.313293%)" offset="0.503906"/><stop stop-opacity="1" stop-color="rgb(45.397949%, 10.48584%, 13.165283%)" offset="0.507812"/><stop stop-opacity="1" stop-color="rgb(44.882202%, 10.366821%, 13.015747%)" offset="0.511719"/><stop stop-opacity="1" stop-color="rgb(44.367981%, 10.247803%, 12.866211%)" offset="0.515625"/><stop stop-opacity="1" stop-color="rgb(43.85376%, 10.128784%, 12.716675%)" offset="0.519531"/><stop stop-opacity="1" stop-color="rgb(43.339539%, 10.011292%, 12.567139%)" offset="0.523438"/><stop stop-opacity="1" stop-color="rgb(42.823792%, 9.892273%, 12.417603%)" offset="0.527344"/><stop stop-opacity="1" stop-color="rgb(42.30957%, 9.773254%, 12.269592%)" offset="0.53125"/><stop stop-opacity="1" stop-color="rgb(41.795349%, 9.654236%, 12.120056%)" offset="0.535156"/><stop stop-opacity="1" stop-color="rgb(41.281128%, 9.535217%, 11.97052%)" offset="0.539062"/><stop stop-opacity="1" stop-color="rgb(40.765381%, 9.416199%, 11.820984%)" offset="0.542969"/><stop stop-opacity="1" stop-color="rgb(40.25116%, 9.29718%, 11.672974%)" offset="0.546875"/><stop stop-opacity="1" stop-color="rgb(39.735413%, 9.178162%, 11.523438%)" offset="0.550781"/><stop stop-opacity="1" stop-color="rgb(39.221191%, 9.059143%, 11.373901%)" offset="0.554688"/><stop stop-opacity="1" stop-color="rgb(38.70697%, 8.940125%, 11.224365%)" offset="0.558594"/><stop stop-opacity="1" stop-color="rgb(38.192749%, 8.822632%, 11.074829%)" offset="0.5625"/><stop stop-opacity="1" stop-color="rgb(37.677002%, 8.703613%, 10.925293%)" offset="0.566406"/><stop stop-opacity="1" stop-color="rgb(37.162781%, 8.584595%, 10.777283%)" offset="0.570312"/><stop stop-opacity="1" stop-color="rgb(36.64856%, 8.465576%, 10.627747%)" offset="0.574219"/><stop stop-opacity="1" stop-color="rgb(36.134338%, 8.346558%, 10.47821%)" offset="0.578125"/><stop stop-opacity="1" stop-color="rgb(35.618591%, 8.227539%, 10.328674%)" offset="0.582031"/><stop stop-opacity="1" stop-color="rgb(35.10437%, 8.108521%, 10.179138%)" offset="0.585938"/><stop stop-opacity="1" stop-color="rgb(34.590149%, 7.989502%, 10.029602%)" offset="0.589844"/><stop stop-opacity="1" stop-color="rgb(34.075928%, 7.870483%, 9.881592%)" offset="0.59375"/><stop stop-opacity="1" stop-color="rgb(33.560181%, 7.751465%, 9.732056%)" offset="0.597656"/><stop stop-opacity="1" stop-color="rgb(33.045959%, 7.632446%, 9.58252%)" offset="0.601562"/><stop stop-opacity="1" stop-color="rgb(32.531738%, 7.513428%, 9.432983%)" offset="0.605469"/><stop stop-opacity="1" stop-color="rgb(32.017517%, 7.395935%, 9.284973%)" offset="0.609375"/><stop stop-opacity="1" stop-color="rgb(31.50177%, 7.276917%, 9.135437%)" offset="0.613281"/><stop stop-opacity="1" stop-color="rgb(30.987549%, 7.157898%, 8.985901%)" offset="0.617188"/><stop stop-opacity="1" stop-color="rgb(30.473328%, 7.038879%, 8.836365%)" offset="0.621094"/><stop stop-opacity="1" stop-color="rgb(29.959106%, 6.919861%, 8.686829%)" offset="0.625"/><stop stop-opacity="1" stop-color="rgb(29.443359%, 6.800842%, 8.537292%)" offset="0.628906"/><stop stop-opacity="1" stop-color="rgb(28.929138%, 6.681824%, 8.389282%)" offset="0.632812"/><stop stop-opacity="1" stop-color="rgb(28.414917%, 6.562805%, 8.239746%)" offset="0.636719"/><stop stop-opacity="1" stop-color="rgb(27.900696%, 6.443787%, 8.09021%)" offset="0.640625"/><stop stop-opacity="1" stop-color="rgb(27.384949%, 6.324768%, 7.940674%)" offset="0.644531"/><stop stop-opacity="1" stop-color="rgb(26.870728%, 6.207275%, 7.792664%)" offset="0.648438"/><stop stop-opacity="1" stop-color="rgb(26.356506%, 6.088257%, 7.643127%)" offset="0.652344"/><stop stop-opacity="1" stop-color="rgb(25.842285%, 5.969238%, 7.493591%)" offset="0.65625"/><stop stop-opacity="1" stop-color="rgb(25.326538%, 5.85022%, 7.344055%)" offset="0.660156"/><stop stop-opacity="1" stop-color="rgb(24.812317%, 5.731201%, 7.194519%)" offset="0.664062"/><stop stop-opacity="1" stop-color="rgb(24.29657%, 5.612183%, 7.044983%)" offset="0.667969"/><stop stop-opacity="1" stop-color="rgb(23.782349%, 5.493164%, 6.896973%)" offset="0.671875"/><stop stop-opacity="1" stop-color="rgb(23.268127%, 5.374146%, 6.747437%)" offset="0.675781"/><stop stop-opacity="1" stop-color="rgb(22.753906%, 5.255127%, 6.5979%)" offset="0.679688"/><stop stop-opacity="1" stop-color="rgb(22.238159%, 5.136108%, 6.448364%)" offset="0.683594"/><stop stop-opacity="1" stop-color="rgb(21.723938%, 5.01709%, 6.298828%)" offset="0.6875"/><stop stop-opacity="1" stop-color="rgb(21.209717%, 4.898071%, 6.149292%)" offset="0.691406"/><stop stop-opacity="1" stop-color="rgb(20.695496%, 4.780579%, 6.001282%)" offset="0.695312"/><stop stop-opacity="1" stop-color="rgb(20.179749%, 4.66156%, 5.851746%)" offset="0.699219"/><stop stop-opacity="1" stop-color="rgb(19.665527%, 4.542542%, 5.702209%)" offset="0.703125"/><stop stop-opacity="1" stop-color="rgb(19.151306%, 4.423523%, 5.552673%)" offset="0.707031"/><stop stop-opacity="1" stop-color="rgb(18.637085%, 4.304504%, 5.404663%)" offset="0.710938"/><stop stop-opacity="1" stop-color="rgb(18.121338%, 4.185486%, 5.255127%)" offset="0.714844"/><stop stop-opacity="1" stop-color="rgb(17.607117%, 4.066467%, 5.105591%)" offset="0.71875"/><stop stop-opacity="1" stop-color="rgb(17.092896%, 3.947449%, 4.956055%)" offset="0.722656"/><stop stop-opacity="1" stop-color="rgb(16.578674%, 3.82843%, 4.806519%)" offset="0.726562"/><stop stop-opacity="1" stop-color="rgb(16.062927%, 3.709412%, 4.656982%)" offset="0.730469"/><stop stop-opacity="1" stop-color="rgb(15.548706%, 3.591919%, 4.508972%)" offset="0.734375"/><stop stop-opacity="1" stop-color="rgb(15.034485%, 3.4729%, 4.359436%)" offset="0.738281"/><stop stop-opacity="1" stop-color="rgb(14.520264%, 3.353882%, 4.2099%)" offset="0.742188"/><stop stop-opacity="1" stop-color="rgb(14.004517%, 3.234863%, 4.060364%)" offset="0.746094"/><stop stop-opacity="1" stop-color="rgb(13.490295%, 3.115845%, 3.912354%)" offset="0.75"/><stop stop-opacity="1" stop-color="rgb(12.976074%, 2.996826%, 3.762817%)" offset="0.753906"/><stop stop-opacity="1" stop-color="rgb(12.461853%, 2.877808%, 3.613281%)" offset="0.757812"/><stop stop-opacity="1" stop-color="rgb(11.946106%, 2.758789%, 3.463745%)" offset="0.761719"/><stop stop-opacity="1" stop-color="rgb(11.431885%, 2.639771%, 3.314209%)" offset="0.765625"/><stop stop-opacity="1" stop-color="rgb(10.916138%, 2.520752%, 3.164673%)" offset="0.769531"/><stop stop-opacity="1" stop-color="rgb(10.401917%, 2.401733%, 3.016663%)" offset="0.773438"/><stop stop-opacity="1" stop-color="rgb(9.887695%, 2.282715%, 2.867126%)" offset="0.777344"/><stop stop-opacity="1" stop-color="rgb(9.373474%, 2.165222%, 2.71759%)" offset="0.78125"/><stop stop-opacity="1" stop-color="rgb(8.857727%, 2.046204%, 2.568054%)" offset="0.785156"/><stop stop-opacity="1" stop-color="rgb(8.343506%, 1.927185%, 2.418518%)" offset="0.789062"/><stop stop-opacity="1" stop-color="rgb(7.829285%, 1.808167%, 2.268982%)" offset="0.792969"/><stop stop-opacity="1" stop-color="rgb(7.315063%, 1.689148%, 2.120972%)" offset="0.796875"/><stop stop-opacity="1" stop-color="rgb(6.799316%, 1.570129%, 1.971436%)" offset="0.800781"/><stop stop-opacity="1" stop-color="rgb(6.285095%, 1.451111%, 1.821899%)" offset="0.804688"/><stop stop-opacity="1" stop-color="rgb(5.770874%, 1.332092%, 1.672363%)" offset="0.808594"/><stop stop-opacity="1" stop-color="rgb(5.256653%, 1.213074%, 1.524353%)" offset="0.8125"/><stop stop-opacity="1" stop-color="rgb(4.740906%, 1.094055%, 1.374817%)" offset="0.816406"/><stop stop-opacity="1" stop-color="rgb(4.226685%, 0.976562%, 1.225281%)" offset="0.820313"/><stop stop-opacity="1" stop-color="rgb(3.712463%, 0.857544%, 1.075745%)" offset="0.824219"/><stop stop-opacity="1" stop-color="rgb(3.198242%, 0.738525%, 0.926208%)" offset="0.828125"/><stop stop-opacity="1" stop-color="rgb(2.682495%, 0.619507%, 0.776672%)" offset="0.832031"/><stop stop-opacity="1" stop-color="rgb(2.168274%, 0.500488%, 0.628662%)" offset="0.835938"/><stop stop-opacity="1" stop-color="rgb(1.654053%, 0.38147%, 0.479126%)" offset="0.839844"/><stop stop-opacity="1" stop-color="rgb(1.139832%, 0.262451%, 0.32959%)" offset="0.84375"/><stop stop-opacity="1" stop-color="rgb(0.624084%, 0.143433%, 0.180054%)" offset="0.847656"/><stop stop-opacity="1" stop-color="rgb(0.109863%, 0.0244141%, 0.0320435%)" offset="0.851562"/><stop stop-opacity="1" stop-color="rgb(0.0549316%, 0.012207%, 0.0152588%)" offset="0.859375"/><stop stop-opacity="1" stop-color="rgb(0%, 0%, 0%)" offset="0.875"/><stop stop-opacity="1" stop-color="rgb(0%, 0%, 0%)" offset="1"/></linearGradient><clipPath id="5496b606d9"><path d="M 73 184 L 113.929688 184 L 113.929688 207 L 73 207 Z M 73 184 " clip-rule="nonzero"/></clipPath><clipPath id="824db10593"><path d="M 97.808594 206.914062 C 87.988281 206.695312 73.53125 201.832031 73.414062 195.835938 C 73.300781 189.84375 88.859375 184.683594 97.664062 184.515625 C 106.46875 184.34375 113.703125 189.066406 113.816406 195.058594 C 113.933594 201.050781 107.285156 207.128906 97.808594 206.914062 Z M 97.808594 206.914062 " clip-rule="nonzero"/></clipPath><clipPath id="8986d72188"><path d="M 73 191 L 109 191 L 109 222 L 73 222 Z M 73 191 " clip-rule="nonzero"/></clipPath><clipPath id="d0e501772e"><path d="M 87.84375 216.84375 C 81.460938 210.777344 70.585938 198.839844 74.019531 193.929688 C 77.457031 189.015625 93.070312 194.007812 100.289062 199.054688 C 107.503906 204.105469 110.570312 212.179688 107.132812 217.089844 C 103.699219 222.003906 95.222656 223.855469 87.84375 216.84375 Z M 87.84375 216.84375 " clip-rule="nonzero"/></clipPath></defs><g clip-path="url(#489dba3141)"><path fill="#000000" d="M 90.679688 228.199219 L 61.855469 228.199219 L 61.855469 199.375 C 61.855469 183.394531 74.808594 170.4375 90.789062 170.4375 L 119.617188 170.4375 L 119.617188 199.261719 C 119.617188 215.246094 106.660156 228.199219 90.679688 228.199219 Z M 90.679688 228.199219 " fill-opacity="1" fill-rule="nonzero"/></g><g clip-path="url(#67412b6fd4)"><g clip-path="url(#d0003e0816)"><path fill="url(#9f9967e0b1)" d="M 111.078125 169.378906 L 69.925781 170.503906 L 70.84375 204.023438 L 111.992188 202.898438 Z M 111.078125 169.378906 " fill-rule="nonzero"/></g></g><g clip-path="url(#5496b606d9)"><g clip-path="url(#824db10593)"><path fill="#ff3b4a" d="M 113.898438 183.234375 L 72.675781 184.359375 L 73.332031 208.238281 L 114.550781 207.109375 Z M 113.898438 183.234375 " fill-opacity="1" fill-rule="nonzero"/></g></g><g clip-path="url(#8986d72188)"><g clip-path="url(#d0e501772e)"><path fill="#000000" d="M 110.539062 187.925781 L 69.636719 189.042969 L 70.613281 224.777344 L 111.515625 223.660156 Z M 110.539062 187.925781 " fill-opacity="1" fill-rule="nonzero"/></g></g><g fill="#231f20" fill-opacity="1"><g transform="translate(126.540817, 202.508317)"><g><path d="M 10.980469 0 L 10.980469 -17.953125 L 17.371094 -17.953125 L 17.371094 -21.457031 L 0.679688 -21.457031 L 0.679688 -17.953125 L 7.066406 -17.953125 L 7.066406 0 Z M 10.980469 0 "/></g></g></g><g fill="#231f20" fill-opacity="1"><g transform="translate(144.587524, 202.508317)"><g><path d="M 6.058594 0 L 6.058594 -8.28125 C 6.058594 -11.203125 8.109375 -13.1875 10.347656 -13.1875 C 12.652344 -13.1875 14.105469 -11.878906 14.105469 -8.660156 L 14.105469 0 L 17.921875 0 L 17.921875 -8.738281 C 17.921875 -13.835938 15.761719 -16.707031 11.40625 -16.707031 C 8.914062 -16.707031 6.972656 -15.554688 5.964844 -13.789062 L 6.058594 -15.601562 L 6.058594 -22.214844 L 2.242188 -22.214844 L 2.242188 0 Z M 6.058594 0 "/></g></g></g><g fill="#231f20" fill-opacity="1"><g transform="translate(164.621893, 202.508317)"><g><path d="M 6.058594 0 L 6.058594 -7.542969 C 6.058594 -10.996094 7.839844 -12.9375 10.460938 -12.9375 L 11.988281 -12.9375 L 11.988281 -16.21875 L 10.253906 -16.21875 C 8.140625 -16.21875 6.65625 -15.066406 5.898438 -13.285156 L 5.898438 -16.21875 L 2.242188 -16.21875 L 2.242188 0 Z M 6.058594 0 "/></g></g></g><g fill="#231f20" fill-opacity="1"><g transform="translate(177.099991, 202.508317)"><g><path d="M 17.667969 -8.394531 C 17.667969 -12.859375 14.386719 -16.707031 9.496094 -16.707031 C 4.621094 -16.707031 1.089844 -12.84375 1.089844 -8.109375 C 1.089844 -3.375 4.621094 0.488281 9.496094 0.488281 C 13.535156 0.488281 16.421875 -2.175781 17.242188 -5.097656 L 13.078125 -5.097656 C 12.527344 -3.722656 11.34375 -2.917969 9.417969 -2.917969 C 7.179688 -2.917969 5.316406 -4.449219 4.921875 -7.097656 L 17.589844 -7.097656 C 17.652344 -7.699219 17.667969 -7.984375 17.667969 -8.394531 Z M 5.078125 -10.050781 C 5.726562 -12.335938 7.558594 -13.378906 9.480469 -13.378906 C 11.722656 -13.378906 13.613281 -11.863281 13.773438 -10.050781 Z M 5.078125 -10.050781 "/></g></g></g><g fill="#231f20" fill-opacity="1"><g transform="translate(195.635726, 202.508317)"><g><path d="M 8.722656 0.488281 C 11.359375 0.488281 13.503906 -0.710938 14.5625 -2.730469 L 14.5625 0 L 18.191406 0 L 18.191406 -16.21875 L 14.5625 -16.21875 L 14.5625 -13.472656 C 13.519531 -15.492188 11.359375 -16.707031 8.707031 -16.707031 C 4.371094 -16.707031 1.089844 -12.84375 1.089844 -8.109375 C 1.089844 -3.34375 4.339844 0.488281 8.722656 0.488281 Z M 9.640625 -3.042969 C 7.066406 -3.042969 4.875 -4.953125 4.875 -8.109375 C 4.875 -11.152344 7.019531 -13.171875 9.640625 -13.171875 C 12.289062 -13.171875 14.402344 -10.933594 14.402344 -8.109375 C 14.402344 -5.238281 12.304688 -3.042969 9.640625 -3.042969 Z M 9.640625 -3.042969 "/></g></g></g><g fill="#231f20" fill-opacity="1"><g transform="translate(216.064472, 202.508317)"><g><path d="M 12.210938 0 L 12.210938 -3.171875 L 9.703125 -3.171875 C 8.488281 -3.171875 7.351562 -3.722656 7.351562 -5.996094 L 7.351562 -12.9375 L 12.210938 -12.9375 L 12.210938 -16.21875 L 7.351562 -16.21875 L 7.351562 -21 L 3.535156 -20.964844 L 3.535156 -16.21875 L 0.171875 -16.21875 L 0.171875 -12.9375 L 3.535156 -12.9375 L 3.535156 -6.167969 C 3.535156 -0.820312 6.46875 0 8.914062 0 Z M 12.210938 0 "/></g></g></g><g fill="#231f20" fill-opacity="1"><g transform="translate(229.126249, 202.508317)"><g><path d="M 9.796875 0.488281 C 15.097656 0.488281 18.539062 -1.847656 18.539062 -6.011719 C 18.539062 -10.300781 14.878906 -11.863281 10.933594 -12.589844 C 7.335938 -13.171875 5.554688 -13.992188 5.554688 -15.792969 C 5.554688 -17.148438 6.359375 -18.519531 9.609375 -18.519531 C 12.527344 -18.519531 13.804688 -17.179688 13.804688 -15.523438 L 17.734375 -15.523438 C 17.734375 -19.375 15.003906 -21.960938 9.65625 -21.960938 C 4.085938 -21.960938 1.625 -19.292969 1.625 -15.808594 C 1.625 -11.359375 6.027344 -10.066406 9.625 -9.324219 C 12.605469 -8.757812 14.5625 -8.015625 14.5625 -6.027344 C 14.5625 -3.898438 13 -2.824219 9.78125 -2.824219 C 6.753906 -2.824219 5 -4.433594 5 -6.4375 L 1.074219 -6.4375 C 1.074219 -3.078125 3.597656 0.488281 9.796875 0.488281 Z M 9.796875 0.488281 "/></g></g></g><g fill="#231f20" fill-opacity="1"><g transform="translate(248.655815, 202.508317)"><g><path d="M 17.667969 -8.394531 C 17.667969 -12.859375 14.386719 -16.707031 9.496094 -16.707031 C 4.621094 -16.707031 1.089844 -12.84375 1.089844 -8.109375 C 1.089844 -3.375 4.621094 0.488281 9.496094 0.488281 C 13.535156 0.488281 16.421875 -2.175781 17.242188 -5.097656 L 13.078125 -5.097656 C 12.527344 -3.722656 11.34375 -2.917969 9.417969 -2.917969 C 7.179688 -2.917969 5.316406 -4.449219 4.921875 -7.097656 L 17.589844 -7.097656 C 17.652344 -7.699219 17.667969 -7.984375 17.667969 -8.394531 Z M 5.078125 -10.050781 C 5.726562 -12.335938 7.558594 -13.378906 9.480469 -13.378906 C 11.722656 -13.378906 13.613281 -11.863281 13.773438 -10.050781 Z M 5.078125 -10.050781 "/></g></g></g><g fill="#231f20" fill-opacity="1"><g transform="translate(267.191549, 202.508317)"><g><path d="M 9.464844 0.488281 C 13.628906 0.488281 16.691406 -2.175781 17.527344 -5.933594 L 13.648438 -5.933594 C 12.9375 -3.914062 11.328125 -3.042969 9.480469 -3.042969 C 7.148438 -3.042969 4.875 -4.90625 4.875 -8.109375 C 4.875 -11.296875 7.132812 -13.15625 9.480469 -13.15625 C 11.328125 -13.15625 12.921875 -12.289062 13.648438 -10.492188 L 17.542969 -10.492188 C 16.628906 -14.058594 13.648438 -16.707031 9.464844 -16.707031 C 4.621094 -16.707031 1.089844 -12.828125 1.089844 -8.109375 C 1.089844 -3.375 4.621094 0.488281 9.464844 0.488281 Z M 9.464844 0.488281 "/></g></g></g><g fill="#231f20" fill-opacity="1"><g transform="translate(285.569532, 202.508317)"><g><path d="M 9.527344 0.488281 C 13.820312 0.488281 17.132812 -1.78125 17.132812 -7.558594 L 17.132812 -16.21875 L 13.332031 -16.21875 L 13.332031 -7.667969 C 13.332031 -4.703125 12.070312 -3.0625 9.511719 -3.0625 C 6.972656 -3.0625 5.679688 -4.667969 5.679688 -7.667969 L 5.679688 -16.21875 L 1.894531 -16.21875 L 1.894531 -7.558594 C 1.894531 -1.78125 5.191406 0.488281 9.527344 0.488281 Z M 9.527344 0.488281 "/></g></g></g><g fill="#231f20" fill-opacity="1"><g transform="translate(304.594306, 202.508317)"><g><path d="M 6.058594 0 L 6.058594 -7.542969 C 6.058594 -10.996094 7.839844 -12.9375 10.460938 -12.9375 L 11.988281 -12.9375 L 11.988281 -16.21875 L 10.253906 -16.21875 C 8.140625 -16.21875 6.65625 -15.066406 5.898438 -13.285156 L 5.898438 -16.21875 L 2.242188 -16.21875 L 2.242188 0 Z M 6.058594 0 "/></g></g></g><g fill="#231f20" fill-opacity="1"><g transform="translate(317.072415, 202.508317)"><g><path d="M 17.667969 -8.394531 C 17.667969 -12.859375 14.386719 -16.707031 9.496094 -16.707031 C 4.621094 -16.707031 1.089844 -12.84375 1.089844 -8.109375 C 1.089844 -3.375 4.621094 0.488281 9.496094 0.488281 C 13.535156 0.488281 16.421875 -2.175781 17.242188 -5.097656 L 13.078125 -5.097656 C 12.527344 -3.722656 11.34375 -2.917969 9.417969 -2.917969 C 7.179688 -2.917969 5.316406 -4.449219 4.921875 -7.097656 L 17.589844 -7.097656 C 17.652344 -7.699219 17.667969 -7.984375 17.667969 -8.394531 Z M 5.078125 -10.050781 C 5.726562 -12.335938 7.558594 -13.378906 9.480469 -13.378906 C 11.722656 -13.378906 13.613281 -11.863281 13.773438 -10.050781 Z M 5.078125 -10.050781 "/></g></g></g><g fill="#000000" fill-opacity="1"><g transform="translate(162.689023, 220.391104)"><g><path d="M 6.84375 -7.75 C 7.03125 -7.644531 7.125 -7.484375 7.125 -7.265625 C 7.125 -7.128906 7.078125 -7.003906 6.984375 -6.890625 C 6.890625 -6.765625 6.757812 -6.703125 6.59375 -6.703125 C 6.476562 -6.703125 6.375 -6.726562 6.28125 -6.78125 C 5.789062 -7.050781 5.265625 -7.1875 4.703125 -7.1875 C 4.109375 -7.1875 3.585938 -7.054688 3.140625 -6.796875 C 2.691406 -6.546875 2.34375 -6.1875 2.09375 -5.71875 C 1.84375 -5.25 1.71875 -4.710938 1.71875 -4.109375 C 1.71875 -3.460938 1.84375 -2.90625 2.09375 -2.4375 C 2.351562 -1.96875 2.710938 -1.609375 3.171875 -1.359375 C 3.628906 -1.109375 4.140625 -0.984375 4.703125 -0.984375 C 5.273438 -0.984375 5.800781 -1.125 6.28125 -1.40625 C 6.375 -1.457031 6.472656 -1.484375 6.578125 -1.484375 C 6.753906 -1.484375 6.890625 -1.414062 6.984375 -1.28125 C 7.078125 -1.164062 7.125 -1.039062 7.125 -0.90625 C 7.125 -0.8125 7.097656 -0.722656 7.046875 -0.640625 C 7.003906 -0.554688 6.9375 -0.492188 6.84375 -0.453125 C 6.539062 -0.273438 6.195312 -0.132812 5.8125 -0.03125 C 5.4375 0.0703125 5.066406 0.125 4.703125 0.125 C 3.941406 0.125 3.238281 -0.0390625 2.59375 -0.375 C 1.957031 -0.71875 1.445312 -1.207031 1.0625 -1.84375 C 0.6875 -2.488281 0.5 -3.242188 0.5 -4.109375 C 0.5 -4.898438 0.679688 -5.613281 1.046875 -6.25 C 1.410156 -6.894531 1.910156 -7.398438 2.546875 -7.765625 C 3.191406 -8.128906 3.910156 -8.3125 4.703125 -8.3125 C 5.460938 -8.3125 6.175781 -8.125 6.84375 -7.75 Z M 6.84375 -7.75 "/></g></g></g><g fill="#000000" fill-opacity="1"><g transform="translate(177.836523, 220.391104)"><g><path d="M 8.453125 -4.109375 C 8.453125 -3.316406 8.28125 -2.597656 7.9375 -1.953125 C 7.59375 -1.316406 7.117188 -0.8125 6.515625 -0.4375 C 5.910156 -0.0625 5.234375 0.125 4.484375 0.125 C 3.722656 0.125 3.039062 -0.0625 2.4375 -0.4375 C 1.832031 -0.8125 1.359375 -1.316406 1.015625 -1.953125 C 0.671875 -2.597656 0.5 -3.316406 0.5 -4.109375 C 0.5 -4.898438 0.671875 -5.613281 1.015625 -6.25 C 1.359375 -6.894531 1.832031 -7.40625 2.4375 -7.78125 C 3.039062 -8.15625 3.722656 -8.34375 4.484375 -8.34375 C 5.234375 -8.34375 5.910156 -8.15625 6.515625 -7.78125 C 7.117188 -7.40625 7.59375 -6.894531 7.9375 -6.25 C 8.28125 -5.613281 8.453125 -4.898438 8.453125 -4.109375 Z M 7.234375 -4.109375 C 7.234375 -4.703125 7.113281 -5.234375 6.875 -5.703125 C 6.644531 -6.179688 6.320312 -6.550781 5.90625 -6.8125 C 5.488281 -7.082031 5.015625 -7.21875 4.484375 -7.21875 C 3.941406 -7.21875 3.460938 -7.082031 3.046875 -6.8125 C 2.628906 -6.550781 2.300781 -6.179688 2.0625 -5.703125 C 1.832031 -5.234375 1.71875 -4.703125 1.71875 -4.109375 C 1.71875 -3.523438 1.832031 -2.992188 2.0625 -2.515625 C 2.300781 -2.046875 2.628906 -1.675781 3.046875 -1.40625 C 3.460938 -1.132812 3.941406 -1 4.484375 -1 C 5.015625 -1 5.488281 -1.132812 5.90625 -1.40625 C 6.320312 -1.675781 6.644531 -2.046875 6.875 -2.515625 C 7.113281 -2.992188 7.234375 -3.523438 7.234375 -4.109375 Z M 7.234375 -4.109375 "/></g></g></g><g fill="#000000" fill-opacity="1"><g transform="translate(194.4396, 220.391104)"><g><path d="M 7.125 -8.21875 C 7.269531 -8.21875 7.390625 -8.171875 7.484375 -8.078125 C 7.578125 -7.984375 7.625 -7.859375 7.625 -7.703125 L 7.625 -0.578125 C 7.625 -0.410156 7.570312 -0.269531 7.46875 -0.15625 C 7.363281 -0.0507812 7.226562 0 7.0625 0 C 6.976562 0 6.894531 -0.0078125 6.8125 -0.03125 C 6.726562 -0.0625 6.660156 -0.109375 6.609375 -0.171875 L 2 -6.1875 L 2 -0.515625 C 2 -0.367188 1.945312 -0.242188 1.84375 -0.140625 C 1.75 -0.046875 1.628906 0 1.484375 0 C 1.328125 0 1.203125 -0.046875 1.109375 -0.140625 C 1.015625 -0.242188 0.96875 -0.367188 0.96875 -0.515625 L 0.96875 -7.65625 C 0.96875 -7.820312 1.019531 -7.957031 1.125 -8.0625 C 1.238281 -8.164062 1.375 -8.21875 1.53125 -8.21875 C 1.625 -8.21875 1.710938 -8.203125 1.796875 -8.171875 C 1.878906 -8.140625 1.945312 -8.09375 2 -8.03125 L 6.609375 -2 L 6.609375 -7.703125 C 6.609375 -7.859375 6.65625 -7.984375 6.75 -8.078125 C 6.84375 -8.171875 6.96875 -8.21875 7.125 -8.21875 Z M 7.125 -8.21875 "/></g></g></g><g fill="#000000" fill-opacity="1"><g transform="translate(210.690531, 220.391104)"><g><path d="M 3.46875 0.125 C 2.894531 0.125 2.390625 0.046875 1.953125 -0.109375 C 1.515625 -0.273438 1.09375 -0.539062 0.6875 -0.90625 C 0.53125 -1.039062 0.453125 -1.203125 0.453125 -1.390625 C 0.453125 -1.523438 0.503906 -1.648438 0.609375 -1.765625 C 0.722656 -1.878906 0.851562 -1.9375 1 -1.9375 C 1.132812 -1.9375 1.25 -1.894531 1.34375 -1.8125 C 1.65625 -1.519531 1.976562 -1.304688 2.3125 -1.171875 C 2.644531 -1.035156 3.019531 -0.96875 3.4375 -0.96875 C 3.9375 -0.96875 4.351562 -1.078125 4.6875 -1.296875 C 5.03125 -1.523438 5.203125 -1.8125 5.203125 -2.15625 C 5.191406 -2.5625 5.019531 -2.875 4.6875 -3.09375 C 4.351562 -3.320312 3.847656 -3.515625 3.171875 -3.671875 C 2.367188 -3.828125 1.75 -4.09375 1.3125 -4.46875 C 0.875 -4.851562 0.65625 -5.378906 0.65625 -6.046875 C 0.65625 -6.503906 0.773438 -6.90625 1.015625 -7.25 C 1.265625 -7.601562 1.601562 -7.875 2.03125 -8.0625 C 2.457031 -8.25 2.941406 -8.34375 3.484375 -8.34375 C 3.972656 -8.34375 4.429688 -8.265625 4.859375 -8.109375 C 5.296875 -7.953125 5.644531 -7.742188 5.90625 -7.484375 C 6.09375 -7.328125 6.1875 -7.160156 6.1875 -6.984375 C 6.1875 -6.835938 6.128906 -6.707031 6.015625 -6.59375 C 5.910156 -6.488281 5.785156 -6.4375 5.640625 -6.4375 C 5.523438 -6.4375 5.4375 -6.46875 5.375 -6.53125 C 5.164062 -6.738281 4.878906 -6.910156 4.515625 -7.046875 C 4.160156 -7.191406 3.816406 -7.265625 3.484375 -7.265625 C 2.960938 -7.265625 2.546875 -7.15625 2.234375 -6.9375 C 1.929688 -6.71875 1.78125 -6.4375 1.78125 -6.09375 C 1.78125 -5.707031 1.929688 -5.410156 2.234375 -5.203125 C 2.546875 -5.003906 3.007812 -4.832031 3.625 -4.6875 C 4.226562 -4.550781 4.722656 -4.394531 5.109375 -4.21875 C 5.503906 -4.039062 5.804688 -3.789062 6.015625 -3.46875 C 6.222656 -3.144531 6.328125 -2.722656 6.328125 -2.203125 C 6.328125 -1.753906 6.195312 -1.351562 5.9375 -1 C 5.6875 -0.644531 5.34375 -0.367188 4.90625 -0.171875 C 4.46875 0.0234375 3.988281 0.125 3.46875 0.125 Z M 3.46875 0.125 "/></g></g></g><g fill="#000000" fill-opacity="1"><g transform="translate(225.180673, 220.391104)"><g><path d="M 6.796875 -8.234375 C 6.960938 -8.234375 7.09375 -8.179688 7.1875 -8.078125 C 7.289062 -7.972656 7.34375 -7.835938 7.34375 -7.671875 L 7.34375 -3.15625 C 7.34375 -2.539062 7.203125 -1.984375 6.921875 -1.484375 C 6.648438 -0.992188 6.273438 -0.609375 5.796875 -0.328125 C 5.316406 -0.0546875 4.773438 0.078125 4.171875 0.078125 C 3.554688 0.078125 3.003906 -0.0546875 2.515625 -0.328125 C 2.035156 -0.609375 1.65625 -0.992188 1.375 -1.484375 C 1.101562 -1.984375 0.96875 -2.539062 0.96875 -3.15625 L 0.96875 -7.671875 C 0.96875 -7.835938 1.019531 -7.972656 1.125 -8.078125 C 1.238281 -8.179688 1.382812 -8.234375 1.5625 -8.234375 C 1.707031 -8.234375 1.835938 -8.175781 1.953125 -8.0625 C 2.066406 -7.957031 2.125 -7.828125 2.125 -7.671875 L 2.125 -3.15625 C 2.125 -2.75 2.21875 -2.382812 2.40625 -2.0625 C 2.59375 -1.738281 2.84375 -1.484375 3.15625 -1.296875 C 3.46875 -1.117188 3.804688 -1.03125 4.171875 -1.03125 C 4.546875 -1.03125 4.894531 -1.117188 5.21875 -1.296875 C 5.539062 -1.484375 5.796875 -1.738281 5.984375 -2.0625 C 6.179688 -2.382812 6.28125 -2.75 6.28125 -3.15625 L 6.28125 -7.671875 C 6.28125 -7.835938 6.328125 -7.972656 6.421875 -8.078125 C 6.515625 -8.179688 6.640625 -8.234375 6.796875 -8.234375 Z M 6.796875 -8.234375 "/></g></g></g><g fill="#000000" fill-opacity="1"><g transform="translate(241.149868, 220.391104)"><g><path d="M 5.515625 -1.09375 C 5.671875 -1.09375 5.800781 -1.039062 5.90625 -0.9375 C 6.019531 -0.832031 6.078125 -0.703125 6.078125 -0.546875 C 6.078125 -0.390625 6.019531 -0.257812 5.90625 -0.15625 C 5.800781 -0.0507812 5.671875 0 5.515625 0 L 1.546875 0 C 1.378906 0 1.238281 -0.0507812 1.125 -0.15625 C 1.019531 -0.269531 0.96875 -0.40625 0.96875 -0.5625 L 0.96875 -7.65625 C 0.96875 -7.8125 1.019531 -7.941406 1.125 -8.046875 C 1.238281 -8.160156 1.382812 -8.21875 1.5625 -8.21875 C 1.71875 -8.21875 1.851562 -8.160156 1.96875 -8.046875 C 2.082031 -7.941406 2.140625 -7.8125 2.140625 -7.65625 L 2.140625 -1.09375 Z M 5.515625 -1.09375 "/></g></g></g><g fill="#000000" fill-opacity="1"><g transform="translate(255.264376, 220.391104)"><g><path d="M 6.3125 -8.21875 C 6.476562 -8.21875 6.613281 -8.171875 6.71875 -8.078125 C 6.820312 -7.984375 6.875 -7.851562 6.875 -7.6875 C 6.875 -7.519531 6.820312 -7.390625 6.71875 -7.296875 C 6.613281 -7.203125 6.476562 -7.15625 6.3125 -7.15625 L 4.21875 -7.15625 L 4.21875 -0.5625 C 4.21875 -0.40625 4.160156 -0.269531 4.046875 -0.15625 C 3.929688 -0.0507812 3.789062 0 3.625 0 C 3.445312 0 3.300781 -0.0507812 3.1875 -0.15625 C 3.070312 -0.269531 3.015625 -0.40625 3.015625 -0.5625 L 3.015625 -7.15625 L 0.9375 -7.15625 C 0.769531 -7.15625 0.632812 -7.203125 0.53125 -7.296875 C 0.425781 -7.398438 0.375 -7.535156 0.375 -7.703125 C 0.375 -7.859375 0.425781 -7.984375 0.53125 -8.078125 C 0.632812 -8.171875 0.769531 -8.21875 0.9375 -8.21875 Z M 6.3125 -8.21875 "/></g></g></g><g fill="#000000" fill-opacity="1"><g transform="translate(270.165366, 220.391104)"><g><path d="M 2.140625 -0.578125 C 2.140625 -0.410156 2.078125 -0.269531 1.953125 -0.15625 C 1.835938 -0.0507812 1.703125 0 1.546875 0 C 1.378906 0 1.238281 -0.0507812 1.125 -0.15625 C 1.019531 -0.269531 0.96875 -0.410156 0.96875 -0.578125 L 0.96875 -7.65625 C 0.96875 -7.8125 1.019531 -7.941406 1.125 -8.046875 C 1.238281 -8.160156 1.382812 -8.21875 1.5625 -8.21875 C 1.71875 -8.21875 1.851562 -8.160156 1.96875 -8.046875 C 2.082031 -7.941406 2.140625 -7.8125 2.140625 -7.65625 Z M 2.140625 -0.578125 "/></g></g></g><g fill="#000000" fill-opacity="1"><g transform="translate(280.934371, 220.391104)"><g><path d="M 7.125 -8.21875 C 7.269531 -8.21875 7.390625 -8.171875 7.484375 -8.078125 C 7.578125 -7.984375 7.625 -7.859375 7.625 -7.703125 L 7.625 -0.578125 C 7.625 -0.410156 7.570312 -0.269531 7.46875 -0.15625 C 7.363281 -0.0507812 7.226562 0 7.0625 0 C 6.976562 0 6.894531 -0.0078125 6.8125 -0.03125 C 6.726562 -0.0625 6.660156 -0.109375 6.609375 -0.171875 L 2 -6.1875 L 2 -0.515625 C 2 -0.367188 1.945312 -0.242188 1.84375 -0.140625 C 1.75 -0.046875 1.628906 0 1.484375 0 C 1.328125 0 1.203125 -0.046875 1.109375 -0.140625 C 1.015625 -0.242188 0.96875 -0.367188 0.96875 -0.515625 L 0.96875 -7.65625 C 0.96875 -7.820312 1.019531 -7.957031 1.125 -8.0625 C 1.238281 -8.164062 1.375 -8.21875 1.53125 -8.21875 C 1.625 -8.21875 1.710938 -8.203125 1.796875 -8.171875 C 1.878906 -8.140625 1.945312 -8.09375 2 -8.03125 L 6.609375 -2 L 6.609375 -7.703125 C 6.609375 -7.859375 6.65625 -7.984375 6.75 -8.078125 C 6.84375 -8.171875 6.96875 -8.21875 7.125 -8.21875 Z M 7.125 -8.21875 "/></g></g></g><g fill="#000000" fill-opacity="1"><g transform="translate(297.185308, 220.391104)"><g><path d="M 7.015625 -4.328125 C 7.171875 -4.328125 7.300781 -4.269531 7.40625 -4.15625 C 7.507812 -4.050781 7.5625 -3.921875 7.5625 -3.765625 L 7.5625 -1.109375 C 7.5625 -0.898438 7.46875 -0.738281 7.28125 -0.625 C 6.925781 -0.382812 6.53125 -0.195312 6.09375 -0.0625 C 5.664062 0.0625 5.222656 0.125 4.765625 0.125 C 3.984375 0.125 3.265625 -0.0625 2.609375 -0.4375 C 1.960938 -0.820312 1.445312 -1.335938 1.0625 -1.984375 C 0.6875 -2.628906 0.5 -3.335938 0.5 -4.109375 C 0.5 -4.890625 0.6875 -5.601562 1.0625 -6.25 C 1.445312 -6.894531 1.960938 -7.40625 2.609375 -7.78125 C 3.265625 -8.15625 3.984375 -8.34375 4.765625 -8.34375 C 5.160156 -8.34375 5.539062 -8.296875 5.90625 -8.203125 C 6.269531 -8.117188 6.597656 -7.992188 6.890625 -7.828125 C 6.984375 -7.773438 7.050781 -7.707031 7.09375 -7.625 C 7.144531 -7.550781 7.171875 -7.46875 7.171875 -7.375 C 7.171875 -7.207031 7.113281 -7.066406 7 -6.953125 C 6.894531 -6.847656 6.769531 -6.796875 6.625 -6.796875 C 6.507812 -6.796875 6.410156 -6.820312 6.328125 -6.875 C 5.816406 -7.101562 5.296875 -7.21875 4.765625 -7.21875 C 4.203125 -7.21875 3.6875 -7.082031 3.21875 -6.8125 C 2.757812 -6.539062 2.394531 -6.164062 2.125 -5.6875 C 1.851562 -5.207031 1.71875 -4.679688 1.71875 -4.109375 C 1.71875 -3.535156 1.851562 -3.007812 2.125 -2.53125 C 2.394531 -2.0625 2.757812 -1.6875 3.21875 -1.40625 C 3.6875 -1.132812 4.203125 -1 4.765625 -1 C 5.035156 -1 5.316406 -1.03125 5.609375 -1.09375 C 5.898438 -1.15625 6.15625 -1.238281 6.375 -1.34375 L 6.375 -3.203125 L 4.953125 -3.203125 C 4.796875 -3.203125 4.660156 -3.253906 4.546875 -3.359375 C 4.429688 -3.472656 4.375 -3.609375 4.375 -3.765625 C 4.375 -3.921875 4.429688 -4.050781 4.546875 -4.15625 C 4.660156 -4.269531 4.796875 -4.328125 4.953125 -4.328125 Z M 7.015625 -4.328125 "/></g></g></g></svg>